<svg xmlns="http://www.w3.org/2000/svg" viewBox="0 0 64 64" role="img" aria-label="ATS">
  <defs>
    <linearGradient id="gold" x1="10" y1="8" x2="54" y2="56" gradientUnits="userSpaceOnUse">
      <stop offset="0" stop-color="#fff7b0"/>
      <stop offset="0.48" stop-color="#e4bd55"/>
      <stop offset="1" stop-color="#9a6b1d"/>
    </linearGradient>
    <linearGradient id="edge" x1="8" y1="7" x2="56" y2="57" gradientUnits="userSpaceOnUse">
      <stop offset="0" stop-color="#37d8ff"/>
      <stop offset="1" stop-color="#198dff"/>
    </linearGradient>
  </defs>
  <rect x="3" y="3" width="58" height="58" rx="14" fill="#020813"/>
  <rect x="4.5" y="4.5" width="55" height="55" rx="12.5" fill="none" stroke="url(#edge)" stroke-opacity="0.42" stroke-width="3"/>
  <path d="M9 31c7.6-14.1 22-21.3 43-20.9-15.1 1.9-26.9 7.5-35.2 16.8-4.4 5-5.7 10-3.8 15.1" fill="none" stroke="url(#gold)" stroke-width="4.5" stroke-linecap="round"/>
  <path d="M11 51 27.7 15h8.8L53 51H42.6l-2.9-7.2H24.5L21.6 51H11zm17-16h8.1L32 24.9 28 35z" fill="url(#gold)"/>
  <circle cx="47" cy="18" r="3.2" fill="url(#gold)"/>
  <circle cx="49" cy="42" r="3.2" fill="url(#gold)"/>
</svg>
