<svg xmlns="http://www.w3.org/2000/svg" viewBox="0 0 160 160" role="img" aria-label="Cloud icon">
  <defs>
    <radialGradient id="bg" cx="50%" cy="45%" r="62%">
      <stop offset="0" stop-color="#103a63"/>
      <stop offset=".56" stop-color="#07182e"/>
      <stop offset="1" stop-color="#030a18"/>
    </radialGradient>
    <filter id="glow" x="-55%" y="-55%" width="210%" height="210%">
      <feGaussianBlur stdDeviation="4.2" result="blur"/>
      <feMerge><feMergeNode in="blur"/><feMergeNode in="SourceGraphic"/></feMerge>
    </filter>
  </defs>
  <circle cx="80" cy="80" r="68" fill="url(#bg)" stroke="#35d7ff" stroke-width="2" opacity=".96"/>
  <g fill="none" stroke="#39dcff" stroke-linecap="round" stroke-linejoin="round" filter="url(#glow)">
    <path d="M49 91h62c14 0 24-9 24-22 0-12-9-21-21-22-7-16-22-25-40-22-16 3-27 15-30 30-14 2-24 13-24 27 0 5 3 9 7 9h22z" stroke-width="6"/>
    <path d="M80 97V65" stroke-width="6"/>
    <path d="m66 78 14-14 14 14" stroke-width="6"/>
    <path d="M80 97v24" stroke-width="4"/>
    <circle cx="80" cy="128" r="4" fill="#39dcff" stroke-width="0"/>
  </g>
</svg>
